{
    "asset" : {
        "generator" : "Khronos glTF Blender I/O v1.0.5",
        "version" : "2.0"
    },
    "scene" : 0,
    "scenes" : [
        {
            "name" : "Scene",
            "nodes" : [
                0,
                1,
                2,
                3,
                4,
                5
            ]
        }
    ],
    "nodes" : [
        {
            "mesh" : 0,
            "name" : "drone_costum",
            "rotation" : [
                0.6862071752548218,
                0.046151529997587204,
                -0.007116474211215973,
                0.72590571641922
            ],
            "scale" : [
                0.25034767389297485,
                0.5260586738586426,
                0.25033989548683167
            ]
        },
        {
            "name" : "Camera.001",
            "rotation" : [
                0.8895164132118225,
                0.09390930831432343,
                -0.39356932044029236,
                0.21223783493041992
            ],
            "translation" : [
                11.804672241210938,
                9.238659858703613,
                11.414874076843262
            ]
        },
        {
            "name" : "Camera",
            "rotation" : [
                0.483536034822464,
                0.33687159419059753,
                -0.20870360732078552,
                0.7804827094078064
            ],
            "translation" : [
                7.488810062408447,
                4.649689197540283,
                7.050262928009033
            ]
        },
        {
            "name" : "Light",
            "rotation" : [
                0.16907577216625214,
                0.7558802962303162,
                -0.27217137813568115,
                0.570947527885437
            ],
            "translation" : [
                4.076245307922363,
                5.903861999511719,
                -1.0054539442062378
            ]
        },
        {
            "mesh" : 1,
            "name" : "10452_Rose_Bush_v1_Iteration2",
            "rotation" : [
                0.6336937546730042,
                -0.5515562891960144,
                0.47495150566101074,
                0.26199039816856384
            ],
            "scale" : [
                0.06611845642328262,
                0.042865633964538574,
                0.06568313390016556
            ],
            "translation" : [
                1.0150007009506226,
                -0.026243925094604492,
                0.17049753665924072
            ]
        },
        {
            "name" : "Empty",
            "translation" : [
                -0.037572890520095825,
                -1.1145731210708618,
                0.12293495982885361
            ]
        }
    ],
    "materials" : [
        {
            "doubleSided" : true,
            "name" : "col_master",
            "pbrMetallicRoughness" : {
                "baseColorFactor" : [
                    1,
                    0.03873322904109955,
                    0.12328775227069855,
                    1
                ],
                "metallicFactor" : 1,
                "roughnessFactor" : 1
            }
        },
        {
            "doubleSided" : true,
            "name" : "col_1",
            "pbrMetallicRoughness" : {
                "baseColorFactor" : [
                    0.31363993883132935,
                    0.15465717017650604,
                    1,
                    1
                ],
                "metallicFactor" : 1,
                "roughnessFactor" : 1
            }
        },
        {
            "doubleSided" : true,
            "name" : "lover 1",
            "pbrMetallicRoughness" : {
                "baseColorTexture" : {
                    "index" : 0,
                    "texCoord" : 0
                },
                "metallicFactor" : 1,
                "roughnessFactor" : 1
            }
        },
        {
            "doubleSided" : true,
            "name" : "col_3",
            "pbrMetallicRoughness" : {
                "baseColorFactor" : [
                    1,
                    0.8886131048202515,
                    0.05715041980147362,
                    1
                ],
                "metallicFactor" : 1,
                "roughnessFactor" : 1
            }
        },
        {
            "doubleSided" : true,
            "name" : "uv__tex_blury",
            "pbrMetallicRoughness" : {
                "baseColorFactor" : [
                    1,
                    0.004025482572615147,
                    0.1558649241924286,
                    1
                ],
                "metallicFactor" : 1,
                "roughnessFactor" : 0.7340909242630005
            }
        },
        {
            "doubleSided" : true,
            "name" : "col_4",
            "pbrMetallicRoughness" : {
                "baseColorFactor" : [
                    0.5732685327529907,
                    0.1677364706993103,
                    1,
                    1
                ],
                "metallicFactor" : 1,
                "roughnessFactor" : 1
            }
        },
        {
            "doubleSided" : true,
            "name" : "uv_text_camera",
            "pbrMetallicRoughness" : {
                "baseColorFactor" : [
                    1,
                    1,
                    1,
                    1
                ],
                "metallicFactor" : 1,
                "roughnessFactor" : 1
            }
        },
        {
            "doubleSided" : true,
            "name" : "10452_Rose_Bush_v1",
            "pbrMetallicRoughness" : {
                "baseColorTexture" : {
                    "index" : 1,
                    "texCoord" : 0
                },
                "metallicFactor" : 0.459090918302536,
                "roughnessFactor" : 0.8945907354354858
            }
        }
    ],
    "meshes" : [
        {
            "name" : "Cube",
            "primitives" : [
                {
                    "attributes" : {
                        "POSITION" : 0,
                        "NORMAL" : 1,
                        "TEXCOORD_0" : 2
                    },
                    "indices" : 3,
                    "material" : 0
                },
                {
                    "attributes" : {
                        "POSITION" : 4,
                        "NORMAL" : 5,
                        "TEXCOORD_0" : 6
                    },
                    "indices" : 7,
                    "material" : 1
                },
                {
                    "attributes" : {
                        "POSITION" : 8,
                        "NORMAL" : 9,
                        "TEXCOORD_0" : 10
                    },
                    "indices" : 11,
                    "material" : 2
                },
                {
                    "attributes" : {
                        "POSITION" : 12,
                        "NORMAL" : 13,
                        "TEXCOORD_0" : 14
                    },
                    "indices" : 15,
                    "material" : 3
                },
                {
                    "attributes" : {
                        "POSITION" : 16,
                        "NORMAL" : 17,
                        "TEXCOORD_0" : 18
                    },
                    "indices" : 19,
                    "material" : 4
                },
                {
                    "attributes" : {
                        "POSITION" : 20,
                        "NORMAL" : 21,
                        "TEXCOORD_0" : 22
                    },
                    "indices" : 23,
                    "material" : 5
                },
                {
                    "attributes" : {
                        "POSITION" : 24,
                        "NORMAL" : 25,
                        "TEXCOORD_0" : 26
                    },
                    "indices" : 27,
                    "material" : 6
                }
            ]
        },
        {
            "name" : "10452_Rose_Bush_v1_Iteration2",
            "primitives" : [
                {
                    "attributes" : {
                        "POSITION" : 28,
                        "NORMAL" : 29,
                        "TEXCOORD_0" : 30
                    },
                    "indices" : 31,
                    "material" : 7
                }
            ]
        }
    ],
    "textures" : [
        {
            "source" : 0
        },
        {
            "source" : 1
        }
    ],
    "images" : [
        {
            "mimeType" : "image/png",
            "name" : "love texture",
            "uri" : "love texture.png"
        },
        {
            "mimeType" : "image/jpeg",
            "name" : "10452_Rose_Bush_v1_Diffuse",
            "uri" : "10452_Rose_Bush_v1_Diffuse.jpg"
        }
    ],
    "accessors" : [
        {
            "bufferView" : 0,
            "componentType" : 5126,
            "count" : 3009,
            "max" : [
                6.202479362487793,
                2.078627586364746,
                1.4911965131759644
            ],
            "min" : [
                -6.202479362487793,
                -2.3300576210021973,
                -1.537471055984497
            ],
            "type" : "VEC3"
        },
        {
            "bufferView" : 1,
            "componentType" : 5126,
            "count" : 3009,
            "type" : "VEC3"
        },
        {
            "bufferView" : 2,
            "componentType" : 5126,
            "count" : 3009,
            "type" : "VEC2"
        },
        {
            "bufferView" : 3,
            "componentType" : 5123,
            "count" : 5814,
            "type" : "SCALAR"
        },
        {
            "bufferView" : 4,
            "componentType" : 5126,
            "count" : 2454,
            "max" : [
                6.202479362487793,
                2.078627586364746,
                1.0377326011657715
            ],
            "min" : [
                -6.202479362487793,
                -2.3300576210021973,
                -1.537471055984497
            ],
            "type" : "VEC3"
        },
        {
            "bufferView" : 5,
            "componentType" : 5126,
            "count" : 2454,
            "type" : "VEC3"
        },
        {
            "bufferView" : 6,
            "componentType" : 5126,
            "count" : 2454,
            "type" : "VEC2"
        },
        {
            "bufferView" : 7,
            "componentType" : 5123,
            "count" : 5664,
            "type" : "SCALAR"
        },
        {
            "bufferView" : 8,
            "componentType" : 5126,
            "count" : 8,
            "max" : [
                1.4553648233413696,
                -0.01155068725347519,
                -1.2975797653198242
            ],
            "min" : [
                -1.4553648233413696,
                -0.1106729656457901,
                -1.2975797653198242
            ],
            "type" : "VEC3"
        },
        {
            "bufferView" : 9,
            "componentType" : 5126,
            "count" : 8,
            "type" : "VEC3"
        },
        {
            "bufferView" : 10,
            "componentType" : 5126,
            "count" : 8,
            "type" : "VEC2"
        },
        {
            "bufferView" : 11,
            "componentType" : 5123,
            "count" : 12,
            "type" : "SCALAR"
        },
        {
            "bufferView" : 12,
            "componentType" : 5126,
            "count" : 102,
            "max" : [
                1.564584493637085,
                0.39596784114837646,
                0.2818778455257416
            ],
            "min" : [
                -1.564584493637085,
                -1.4235349893569946,
                -1.0142245292663574
            ],
            "type" : "VEC3"
        },
        {
            "bufferView" : 13,
            "componentType" : 5126,
            "count" : 102,
            "type" : "VEC3"
        },
        {
            "bufferView" : 14,
            "componentType" : 5126,
            "count" : 102,
            "type" : "VEC2"
        },
        {
            "bufferView" : 15,
            "componentType" : 5123,
            "count" : 186,
            "type" : "SCALAR"
        },
        {
            "bufferView" : 16,
            "componentType" : 5126,
            "count" : 8061,
            "max" : [
                1.7296274900436401,
                0.7966761589050293,
                1.4329543113708496
            ],
            "min" : [
                -1.7296274900436401,
                -1.051997184753418,
                -1.8631656169891357
            ],
            "type" : "VEC3"
        },
        {
            "bufferView" : 17,
            "componentType" : 5126,
            "count" : 8061,
            "type" : "VEC3"
        },
        {
            "bufferView" : 18,
            "componentType" : 5126,
            "count" : 8061,
            "type" : "VEC2"
        },
        {
            "bufferView" : 19,
            "componentType" : 5123,
            "count" : 13224,
            "type" : "SCALAR"
        },
        {
            "bufferView" : 20,
            "componentType" : 5126,
            "count" : 60,
            "max" : [
                0.7430455684661865,
                1.4514272212982178,
                -0.015152111649513245
            ],
            "min" : [
                -0.7430455684661865,
                -0.4035481810569763,
                -0.9809458255767822
            ],
            "type" : "VEC3"
        },
        {
            "bufferView" : 21,
            "componentType" : 5126,
            "count" : 60,
            "type" : "VEC3"
        },
        {
            "bufferView" : 22,
            "componentType" : 5126,
            "count" : 60,
            "type" : "VEC2"
        },
        {
            "bufferView" : 23,
            "componentType" : 5123,
            "count" : 126,
            "type" : "SCALAR"
        },
        {
            "bufferView" : 24,
            "componentType" : 5126,
            "count" : 8,
            "max" : [
                0.1757117658853531,
                0.4184191823005676,
                1.3260596990585327
            ],
            "min" : [
                -0.1757117211818695,
                0.4184191823005676,
                0.9746361970901489
            ],
            "type" : "VEC3"
        },
        {
            "bufferView" : 25,
            "componentType" : 5126,
            "count" : 8,
            "type" : "VEC3"
        },
        {
            "bufferView" : 26,
            "componentType" : 5126,
            "count" : 8,
            "type" : "VEC2"
        },
        {
            "bufferView" : 27,
            "componentType" : 5123,
            "count" : 18,
            "type" : "SCALAR"
        },
        {
            "bufferView" : 28,
            "componentType" : 5126,
            "count" : 27603,
            "max" : [
                9.050789833068848,
                64.0788345336914,
                9.648200988769531
            ],
            "min" : [
                -6.075572490692139,
                -1.5902118682861328,
                -3.1345043182373047
            ],
            "type" : "VEC3"
        },
        {
            "bufferView" : 29,
            "componentType" : 5126,
            "count" : 27603,
            "type" : "VEC3"
        },
        {
            "bufferView" : 30,
            "componentType" : 5126,
            "count" : 27603,
            "type" : "VEC2"
        },
        {
            "bufferView" : 31,
            "componentType" : 5123,
            "count" : 153702,
            "type" : "SCALAR"
        }
    ],
    "bufferViews" : [
        {
            "buffer" : 0,
            "byteLength" : 36108,
            "byteOffset" : 0
        },
        {
            "buffer" : 0,
            "byteLength" : 36108,
            "byteOffset" : 36108
        },
        {
            "buffer" : 0,
            "byteLength" : 24072,
            "byteOffset" : 72216
        },
        {
            "buffer" : 0,
            "byteLength" : 11628,
            "byteOffset" : 96288
        },
        {
            "buffer" : 0,
            "byteLength" : 29448,
            "byteOffset" : 107916
        },
        {
            "buffer" : 0,
            "byteLength" : 29448,
            "byteOffset" : 137364
        },
        {
            "buffer" : 0,
            "byteLength" : 19632,
            "byteOffset" : 166812
        },
        {
            "buffer" : 0,
            "byteLength" : 11328,
            "byteOffset" : 186444
        },
        {
            "buffer" : 0,
            "byteLength" : 96,
            "byteOffset" : 197772
        },
        {
            "buffer" : 0,
            "byteLength" : 96,
            "byteOffset" : 197868
        },
        {
            "buffer" : 0,
            "byteLength" : 64,
            "byteOffset" : 197964
        },
        {
            "buffer" : 0,
            "byteLength" : 24,
            "byteOffset" : 198028
        },
        {
            "buffer" : 0,
            "byteLength" : 1224,
            "byteOffset" : 198052
        },
        {
            "buffer" : 0,
            "byteLength" : 1224,
            "byteOffset" : 199276
        },
        {
            "buffer" : 0,
            "byteLength" : 816,
            "byteOffset" : 200500
        },
        {
            "buffer" : 0,
            "byteLength" : 372,
            "byteOffset" : 201316
        },
        {
            "buffer" : 0,
            "byteLength" : 96732,
            "byteOffset" : 201688
        },
        {
            "buffer" : 0,
            "byteLength" : 96732,
            "byteOffset" : 298420
        },
        {
            "buffer" : 0,
            "byteLength" : 64488,
            "byteOffset" : 395152
        },
        {
            "buffer" : 0,
            "byteLength" : 26448,
            "byteOffset" : 459640
        },
        {
            "buffer" : 0,
            "byteLength" : 720,
            "byteOffset" : 486088
        },
        {
            "buffer" : 0,
            "byteLength" : 720,
            "byteOffset" : 486808
        },
        {
            "buffer" : 0,
            "byteLength" : 480,
            "byteOffset" : 487528
        },
        {
            "buffer" : 0,
            "byteLength" : 252,
            "byteOffset" : 488008
        },
        {
            "buffer" : 0,
            "byteLength" : 96,
            "byteOffset" : 488260
        },
        {
            "buffer" : 0,
            "byteLength" : 96,
            "byteOffset" : 488356
        },
        {
            "buffer" : 0,
            "byteLength" : 64,
            "byteOffset" : 488452
        },
        {
            "buffer" : 0,
            "byteLength" : 36,
            "byteOffset" : 488516
        },
        {
            "buffer" : 0,
            "byteLength" : 331236,
            "byteOffset" : 488552
        },
        {
            "buffer" : 0,
            "byteLength" : 331236,
            "byteOffset" : 819788
        },
        {
            "buffer" : 0,
            "byteLength" : 220824,
            "byteOffset" : 1151024
        },
        {
            "buffer" : 0,
            "byteLength" : 307404,
            "byteOffset" : 1371848
        }
    ],
    "buffers" : [
        {
            "byteLength" : 1679252,
            "uri" : "drone.bin"
        }
    ]
}
