{
    "asset" : {
        "generator" : "Khronos glTF Blender I/O v1.0.5",
        "version" : "2.0"
    },
    "scene" : 0,
    "scenes" : [
        {
            "name" : "Scene",
            "nodes" : [
                0,
                1,
                2,
                3,
                4
            ]
        }
    ],
    "nodes" : [
        {
            "name" : "Lamp.002",
            "rotation" : [
                0.313255250453949,
                -0.28246763348579407,
                0.06734244525432587,
                0.9041836857795715
            ],
            "translation" : [
                -6.040964126586914,
                4.418546676635742,
                -16.672527313232422
            ]
        },
        {
            "name" : "Lamp.001",
            "rotation" : [
                0.313255250453949,
                -0.28246763348579407,
                0.06734244525432587,
                0.9041836857795715
            ],
            "translation" : [
                9.053850173950195,
                9.86941909790039,
                -3.785885810852051
            ]
        },
        {
            "mesh" : 0,
            "name" : "drone_costum",
            "rotation" : [
                -0.03651111572980881,
                0.05853341519832611,
                0.07667921483516693,
                0.994666337966919
            ],
            "scale" : [
                0.25034767389297485,
                0.2503398656845093,
                0.5260586142539978
            ],
            "translation" : [
                0,
                -0.014938533306121826,
                0
            ]
        },
        {
            "name" : "Lamp_sun",
            "rotation" : [
                0.3163677752017975,
                -0.2344445437192917,
                0.05074717104434967,
                0.9178082346916199
            ],
            "translation" : [
                5.918153762817383,
                23.278667449951172,
                26.65764808654785
            ]
        },
        {
            "name" : "Camera",
            "rotation" : [
                -0.47890815138816833,
                -0.34469929337501526,
                0.21189174056053162,
                -0.7790579795837402
            ],
            "translation" : [
                11.804672241210938,
                9.23866081237793,
                11.414872169494629
            ]
        }
    ],
    "materials" : [
        {
            "doubleSided" : true,
            "name" : "col_master",
            "pbrMetallicRoughness" : {}
        },
        {
            "doubleSided" : true,
            "name" : "col_1",
            "pbrMetallicRoughness" : {}
        },
        {
            "doubleSided" : true,
            "name" : "col_2",
            "pbrMetallicRoughness" : {}
        },
        {
            "doubleSided" : true,
            "name" : "col_3",
            "pbrMetallicRoughness" : {}
        },
        {
            "doubleSided" : true,
            "name" : "uv__tex_blury",
            "pbrMetallicRoughness" : {}
        },
        {
            "doubleSided" : true,
            "name" : "col_4",
            "pbrMetallicRoughness" : {}
        },
        {
            "doubleSided" : true,
            "name" : "uv_text_camera",
            "pbrMetallicRoughness" : {}
        }
    ],
    "meshes" : [
        {
            "name" : "Cube",
            "primitives" : [
                {
                    "attributes" : {
                        "POSITION" : 0,
                        "NORMAL" : 1,
                        "TEXCOORD_0" : 2
                    },
                    "indices" : 3,
                    "material" : 0
                },
                {
                    "attributes" : {
                        "POSITION" : 4,
                        "NORMAL" : 5,
                        "TEXCOORD_0" : 6
                    },
                    "indices" : 7,
                    "material" : 1
                },
                {
                    "attributes" : {
                        "POSITION" : 8,
                        "NORMAL" : 9,
                        "TEXCOORD_0" : 10
                    },
                    "indices" : 11,
                    "material" : 2
                },
                {
                    "attributes" : {
                        "POSITION" : 12,
                        "NORMAL" : 13,
                        "TEXCOORD_0" : 14
                    },
                    "indices" : 15,
                    "material" : 3
                },
                {
                    "attributes" : {
                        "POSITION" : 16,
                        "NORMAL" : 17,
                        "TEXCOORD_0" : 18
                    },
                    "indices" : 19,
                    "material" : 4
                },
                {
                    "attributes" : {
                        "POSITION" : 20,
                        "NORMAL" : 21,
                        "TEXCOORD_0" : 22
                    },
                    "indices" : 23,
                    "material" : 5
                },
                {
                    "attributes" : {
                        "POSITION" : 24,
                        "NORMAL" : 25,
                        "TEXCOORD_0" : 26
                    },
                    "indices" : 27,
                    "material" : 6
                }
            ]
        }
    ],
    "accessors" : [
        {
            "bufferView" : 0,
            "componentType" : 5126,
            "count" : 2978,
            "max" : [
                6.202479362487793,
                1.537471055984497,
                2.078627586364746
            ],
            "min" : [
                -6.202479362487793,
                -1.4911965131759644,
                -2.3300576210021973
            ],
            "type" : "VEC3"
        },
        {
            "bufferView" : 1,
            "componentType" : 5126,
            "count" : 2978,
            "type" : "VEC3"
        },
        {
            "bufferView" : 2,
            "componentType" : 5126,
            "count" : 2978,
            "type" : "VEC2"
        },
        {
            "bufferView" : 3,
            "componentType" : 5123,
            "count" : 5814,
            "type" : "SCALAR"
        },
        {
            "bufferView" : 4,
            "componentType" : 5126,
            "count" : 2452,
            "max" : [
                6.202479362487793,
                1.537471055984497,
                2.078627586364746
            ],
            "min" : [
                -6.202479362487793,
                -1.0377326011657715,
                -2.3300576210021973
            ],
            "type" : "VEC3"
        },
        {
            "bufferView" : 5,
            "componentType" : 5126,
            "count" : 2452,
            "type" : "VEC3"
        },
        {
            "bufferView" : 6,
            "componentType" : 5126,
            "count" : 2452,
            "type" : "VEC2"
        },
        {
            "bufferView" : 7,
            "componentType" : 5123,
            "count" : 5664,
            "type" : "SCALAR"
        },
        {
            "bufferView" : 8,
            "componentType" : 5126,
            "count" : 8,
            "max" : [
                1.4553648233413696,
                1.2975797653198242,
                -0.01155068725347519
            ],
            "min" : [
                -1.4553648233413696,
                1.2975797653198242,
                -0.1106729656457901
            ],
            "type" : "VEC3"
        },
        {
            "bufferView" : 9,
            "componentType" : 5126,
            "count" : 8,
            "type" : "VEC3"
        },
        {
            "bufferView" : 10,
            "componentType" : 5126,
            "count" : 8,
            "type" : "VEC2"
        },
        {
            "bufferView" : 11,
            "componentType" : 5123,
            "count" : 12,
            "type" : "SCALAR"
        },
        {
            "bufferView" : 12,
            "componentType" : 5126,
            "count" : 102,
            "max" : [
                1.564584493637085,
                1.0142245292663574,
                0.39596784114837646
            ],
            "min" : [
                -1.564584493637085,
                -0.2818778455257416,
                -1.4235349893569946
            ],
            "type" : "VEC3"
        },
        {
            "bufferView" : 13,
            "componentType" : 5126,
            "count" : 102,
            "type" : "VEC3"
        },
        {
            "bufferView" : 14,
            "componentType" : 5126,
            "count" : 102,
            "type" : "VEC2"
        },
        {
            "bufferView" : 15,
            "componentType" : 5123,
            "count" : 186,
            "type" : "SCALAR"
        },
        {
            "bufferView" : 16,
            "componentType" : 5126,
            "count" : 8060,
            "max" : [
                1.7296274900436401,
                1.8631656169891357,
                0.7966761589050293
            ],
            "min" : [
                -1.7296274900436401,
                -1.4329543113708496,
                -1.051997184753418
            ],
            "type" : "VEC3"
        },
        {
            "bufferView" : 17,
            "componentType" : 5126,
            "count" : 8060,
            "type" : "VEC3"
        },
        {
            "bufferView" : 18,
            "componentType" : 5126,
            "count" : 8060,
            "type" : "VEC2"
        },
        {
            "bufferView" : 19,
            "componentType" : 5123,
            "count" : 13224,
            "type" : "SCALAR"
        },
        {
            "bufferView" : 20,
            "componentType" : 5126,
            "count" : 58,
            "max" : [
                0.7430455684661865,
                0.9809458255767822,
                1.4514272212982178
            ],
            "min" : [
                -0.7430455684661865,
                0.015152111649513245,
                -0.4035481810569763
            ],
            "type" : "VEC3"
        },
        {
            "bufferView" : 21,
            "componentType" : 5126,
            "count" : 58,
            "type" : "VEC3"
        },
        {
            "bufferView" : 22,
            "componentType" : 5126,
            "count" : 58,
            "type" : "VEC2"
        },
        {
            "bufferView" : 23,
            "componentType" : 5123,
            "count" : 126,
            "type" : "SCALAR"
        },
        {
            "bufferView" : 24,
            "componentType" : 5126,
            "count" : 8,
            "max" : [
                0.1757117658853531,
                -0.9746361970901489,
                0.4184191823005676
            ],
            "min" : [
                -0.1757117211818695,
                -1.3260596990585327,
                0.4184191823005676
            ],
            "type" : "VEC3"
        },
        {
            "bufferView" : 25,
            "componentType" : 5126,
            "count" : 8,
            "type" : "VEC3"
        },
        {
            "bufferView" : 26,
            "componentType" : 5126,
            "count" : 8,
            "type" : "VEC2"
        },
        {
            "bufferView" : 27,
            "componentType" : 5123,
            "count" : 18,
            "type" : "SCALAR"
        }
    ],
    "bufferViews" : [
        {
            "buffer" : 0,
            "byteLength" : 35736,
            "byteOffset" : 0
        },
        {
            "buffer" : 0,
            "byteLength" : 35736,
            "byteOffset" : 35736
        },
        {
            "buffer" : 0,
            "byteLength" : 23824,
            "byteOffset" : 71472
        },
        {
            "buffer" : 0,
            "byteLength" : 11628,
            "byteOffset" : 95296
        },
        {
            "buffer" : 0,
            "byteLength" : 29424,
            "byteOffset" : 106924
        },
        {
            "buffer" : 0,
            "byteLength" : 29424,
            "byteOffset" : 136348
        },
        {
            "buffer" : 0,
            "byteLength" : 19616,
            "byteOffset" : 165772
        },
        {
            "buffer" : 0,
            "byteLength" : 11328,
            "byteOffset" : 185388
        },
        {
            "buffer" : 0,
            "byteLength" : 96,
            "byteOffset" : 196716
        },
        {
            "buffer" : 0,
            "byteLength" : 96,
            "byteOffset" : 196812
        },
        {
            "buffer" : 0,
            "byteLength" : 64,
            "byteOffset" : 196908
        },
        {
            "buffer" : 0,
            "byteLength" : 24,
            "byteOffset" : 196972
        },
        {
            "buffer" : 0,
            "byteLength" : 1224,
            "byteOffset" : 196996
        },
        {
            "buffer" : 0,
            "byteLength" : 1224,
            "byteOffset" : 198220
        },
        {
            "buffer" : 0,
            "byteLength" : 816,
            "byteOffset" : 199444
        },
        {
            "buffer" : 0,
            "byteLength" : 372,
            "byteOffset" : 200260
        },
        {
            "buffer" : 0,
            "byteLength" : 96720,
            "byteOffset" : 200632
        },
        {
            "buffer" : 0,
            "byteLength" : 96720,
            "byteOffset" : 297352
        },
        {
            "buffer" : 0,
            "byteLength" : 64480,
            "byteOffset" : 394072
        },
        {
            "buffer" : 0,
            "byteLength" : 26448,
            "byteOffset" : 458552
        },
        {
            "buffer" : 0,
            "byteLength" : 696,
            "byteOffset" : 485000
        },
        {
            "buffer" : 0,
            "byteLength" : 696,
            "byteOffset" : 485696
        },
        {
            "buffer" : 0,
            "byteLength" : 464,
            "byteOffset" : 486392
        },
        {
            "buffer" : 0,
            "byteLength" : 252,
            "byteOffset" : 486856
        },
        {
            "buffer" : 0,
            "byteLength" : 96,
            "byteOffset" : 487108
        },
        {
            "buffer" : 0,
            "byteLength" : 96,
            "byteOffset" : 487204
        },
        {
            "buffer" : 0,
            "byteLength" : 64,
            "byteOffset" : 487300
        },
        {
            "buffer" : 0,
            "byteLength" : 36,
            "byteOffset" : 487364
        }
    ],
    "buffers" : [
        {
            "byteLength" : 487400,
            "uri" : "data:application/octet-stream;base64,"
        }
    ]
}
